{
    "asset" : {
        "generator" : "Khronos glTF Blender I/O v1.8.19",
        "version" : "2.0"
    },
    "scene" : 0,
    "scenes" : [
        {
            "name" : "Scene",
            "nodes" : [
                0,
                1
            ]
        }
    ],
    "nodes" : [
        {
            "mesh" : 0,
            "name" : "sumaho hontai",
            "rotation" : [
                0,
                0,
                -1,
                -1.6292068494294654e-07
            ],
            "scale" : [
                1.4670000076293945,
                0.03700000047683716,
                0.7149999737739563
            ]
        },
        {
            "mesh" : 1,
            "name" : "sumaho hontai.001",
            "rotation" : [
                0,
                0,
                -1,
                -4.0133926404450904e-07
            ],
            "scale" : [
                1.4670000076293945,
                0.03700000047683716,
                0.7149999737739563
            ]
        }
    ],
    "animations" : [
        {
            "channels" : [
                {
                    "sampler" : 0,
                    "target" : {
                        "node" : 1,
                        "path" : "translation"
                    }
                },
                {
                    "sampler" : 1,
                    "target" : {
                        "node" : 1,
                        "path" : "rotation"
                    }
                }
            ],
            "name" : "sumaho hontai.001Action",
            "samplers" : [
                {
                    "input" : 35,
                    "interpolation" : "LINEAR",
                    "output" : 36
                },
                {
                    "input" : 37,
                    "interpolation" : "LINEAR",
                    "output" : 38
                }
            ]
        }
    ],
    "materials" : [
        {
            "doubleSided" : true,
            "name" : "sumaho hontai",
            "pbrMetallicRoughness" : {
                "baseColorFactor" : [
                    0.8000000715255737,
                    0.7068771123886108,
                    0.429543137550354,
                    1
                ],
                "metallicFactor" : 0,
                "roughnessFactor" : 0.4000000059604645
            }
        },
        {
            "doubleSided" : true,
            "name" : "sumaho hontai2",
            "pbrMetallicRoughness" : {
                "baseColorFactor" : [
                    0,
                    0,
                    0,
                    1
                ],
                "metallicFactor" : 0,
                "roughnessFactor" : 0.5
            }
        },
        {
            "doubleSided" : true,
            "name" : "sumaho naibukouzou",
            "pbrMetallicRoughness" : {
                "baseColorTexture" : {
                    "index" : 0
                },
                "metallicFactor" : 0,
                "roughnessFactor" : 0.5
            }
        },
        {
            "doubleSided" : true,
            "name" : "sumaho ekisyou",
            "pbrMetallicRoughness" : {
                "baseColorFactor" : [
                    0.35430434346199036,
                    0.7725363373756409,
                    0.8000000715255737,
                    1
                ],
                "metallicFactor" : 0,
                "roughnessFactor" : 0.5
            }
        },
        {
            "doubleSided" : true,
            "name" : "sumaho botann",
            "pbrMetallicRoughness" : {
                "baseColorFactor" : [
                    0.800000011920929,
                    0.800000011920929,
                    0.800000011920929,
                    1
                ],
                "metallicFactor" : 0,
                "roughnessFactor" : 0.5
            }
        }
    ],
    "meshes" : [
        {
            "name" : "Cube",
            "primitives" : [
                {
                    "attributes" : {
                        "POSITION" : 0,
                        "NORMAL" : 1,
                        "TEXCOORD_0" : 2,
                        "TEXCOORD_1" : 3
                    },
                    "indices" : 4,
                    "material" : 0
                },
                {
                    "attributes" : {
                        "POSITION" : 5,
                        "NORMAL" : 6,
                        "TEXCOORD_0" : 7,
                        "TEXCOORD_1" : 8
                    },
                    "indices" : 9,
                    "material" : 1
                },
                {
                    "attributes" : {
                        "POSITION" : 10,
                        "NORMAL" : 11,
                        "TEXCOORD_0" : 12,
                        "TEXCOORD_1" : 13
                    },
                    "indices" : 14,
                    "material" : 2
                }
            ]
        },
        {
            "name" : "Cube.001",
            "primitives" : [
                {
                    "attributes" : {
                        "POSITION" : 15,
                        "NORMAL" : 16,
                        "TEXCOORD_0" : 17,
                        "TEXCOORD_1" : 18
                    },
                    "indices" : 19,
                    "material" : 0
                },
                {
                    "attributes" : {
                        "POSITION" : 20,
                        "NORMAL" : 21,
                        "TEXCOORD_0" : 22,
                        "TEXCOORD_1" : 23
                    },
                    "indices" : 24,
                    "material" : 1
                },
                {
                    "attributes" : {
                        "POSITION" : 25,
                        "NORMAL" : 26,
                        "TEXCOORD_0" : 27,
                        "TEXCOORD_1" : 28
                    },
                    "indices" : 29,
                    "material" : 3
                },
                {
                    "attributes" : {
                        "POSITION" : 30,
                        "NORMAL" : 31,
                        "TEXCOORD_0" : 32,
                        "TEXCOORD_1" : 33
                    },
                    "indices" : 34,
                    "material" : 4
                }
            ]
        }
    ],
    "textures" : [
        {
            "sampler" : 0,
            "source" : 0
        }
    ],
    "images" : [
        {
            "mimeType" : "image/png",
            "name" : "sumaho naibu",
            "uri" : "sumaho%20naibu.png"
        }
    ],
    "accessors" : [
        {
            "bufferView" : 0,
            "componentType" : 5126,
            "count" : 136,
            "max" : [
                1,
                1,
                1
            ],
            "min" : [
                -1,
                0,
                -1
            ],
            "type" : "VEC3"
        },
        {
            "bufferView" : 1,
            "componentType" : 5126,
            "count" : 136,
            "type" : "VEC3"
        },
        {
            "bufferView" : 2,
            "componentType" : 5126,
            "count" : 136,
            "type" : "VEC2"
        },
        {
            "bufferView" : 3,
            "componentType" : 5126,
            "count" : 136,
            "type" : "VEC2"
        },
        {
            "bufferView" : 4,
            "componentType" : 5123,
            "count" : 210,
            "type" : "SCALAR"
        },
        {
            "bufferView" : 5,
            "componentType" : 5126,
            "count" : 20,
            "max" : [
                1,
                0.08802574872970581,
                0.08802574872970581
            ],
            "min" : [
                0.9786946773529053,
                0,
                -0.08802574872970581
            ],
            "type" : "VEC3"
        },
        {
            "bufferView" : 6,
            "componentType" : 5126,
            "count" : 20,
            "type" : "VEC3"
        },
        {
            "bufferView" : 7,
            "componentType" : 5126,
            "count" : 20,
            "type" : "VEC2"
        },
        {
            "bufferView" : 8,
            "componentType" : 5126,
            "count" : 20,
            "type" : "VEC2"
        },
        {
            "bufferView" : 9,
            "componentType" : 5123,
            "count" : 30,
            "type" : "SCALAR"
        },
        {
            "bufferView" : 10,
            "componentType" : 5126,
            "count" : 12,
            "max" : [
                1,
                0,
                1
            ],
            "min" : [
                -1,
                0,
                -1
            ],
            "type" : "VEC3"
        },
        {
            "bufferView" : 11,
            "componentType" : 5126,
            "count" : 12,
            "type" : "VEC3"
        },
        {
            "bufferView" : 12,
            "componentType" : 5126,
            "count" : 12,
            "type" : "VEC2"
        },
        {
            "bufferView" : 13,
            "componentType" : 5126,
            "count" : 12,
            "type" : "VEC2"
        },
        {
            "bufferView" : 14,
            "componentType" : 5123,
            "count" : 30,
            "type" : "SCALAR"
        },
        {
            "bufferView" : 15,
            "componentType" : 5126,
            "count" : 173,
            "max" : [
                1,
                0,
                1
            ],
            "min" : [
                -1,
                -1,
                -1
            ],
            "type" : "VEC3"
        },
        {
            "bufferView" : 16,
            "componentType" : 5126,
            "count" : 173,
            "type" : "VEC3"
        },
        {
            "bufferView" : 17,
            "componentType" : 5126,
            "count" : 173,
            "type" : "VEC2"
        },
        {
            "bufferView" : 18,
            "componentType" : 5126,
            "count" : 173,
            "type" : "VEC2"
        },
        {
            "bufferView" : 19,
            "componentType" : 5123,
            "count" : 279,
            "type" : "SCALAR"
        },
        {
            "bufferView" : 20,
            "componentType" : 5126,
            "count" : 40,
            "max" : [
                1,
                0,
                0.10931992530822754
            ],
            "min" : [
                -0.9230021238327026,
                -0.9893321990966797,
                -0.10931992530822754
            ],
            "type" : "VEC3"
        },
        {
            "bufferView" : 21,
            "componentType" : 5126,
            "count" : 40,
            "type" : "VEC3"
        },
        {
            "bufferView" : 22,
            "componentType" : 5126,
            "count" : 40,
            "type" : "VEC2"
        },
        {
            "bufferView" : 23,
            "componentType" : 5126,
            "count" : 40,
            "type" : "VEC2"
        },
        {
            "bufferView" : 24,
            "componentType" : 5123,
            "count" : 60,
            "type" : "SCALAR"
        },
        {
            "bufferView" : 25,
            "componentType" : 5126,
            "count" : 4,
            "max" : [
                0.7839065194129944,
                -0.7943094968795776,
                0.9172991514205933
            ],
            "min" : [
                -0.8559456467628479,
                -0.7943094968795776,
                -0.9172991514205933
            ],
            "type" : "VEC3"
        },
        {
            "bufferView" : 26,
            "componentType" : 5126,
            "count" : 4,
            "type" : "VEC3"
        },
        {
            "bufferView" : 27,
            "componentType" : 5126,
            "count" : 4,
            "type" : "VEC2"
        },
        {
            "bufferView" : 28,
            "componentType" : 5126,
            "count" : 4,
            "type" : "VEC2"
        },
        {
            "bufferView" : 29,
            "componentType" : 5123,
            "count" : 6,
            "type" : "SCALAR"
        },
        {
            "bufferView" : 30,
            "componentType" : 5126,
            "count" : 32,
            "max" : [
                0.9795893430709839,
                -1.0231972932815552,
                0.12752856314182281
            ],
            "min" : [
                0.8406144380569458,
                -1.0231980085372925,
                -0.10976475477218628
            ],
            "type" : "VEC3"
        },
        {
            "bufferView" : 31,
            "componentType" : 5126,
            "count" : 32,
            "type" : "VEC3"
        },
        {
            "bufferView" : 32,
            "componentType" : 5126,
            "count" : 32,
            "type" : "VEC2"
        },
        {
            "bufferView" : 33,
            "componentType" : 5126,
            "count" : 32,
            "type" : "VEC2"
        },
        {
            "bufferView" : 34,
            "componentType" : 5123,
            "count" : 90,
            "type" : "SCALAR"
        },
        {
            "bufferView" : 35,
            "componentType" : 5126,
            "count" : 140,
            "max" : [
                5.833333333333333
            ],
            "min" : [
                0.041666666666666664
            ],
            "type" : "SCALAR"
        },
        {
            "bufferView" : 36,
            "componentType" : 5126,
            "count" : 140,
            "type" : "VEC3"
        },
        {
            "bufferView" : 37,
            "componentType" : 5126,
            "count" : 141,
            "max" : [
                5.833333333333333
            ],
            "min" : [
                0
            ],
            "type" : "SCALAR"
        },
        {
            "bufferView" : 38,
            "componentType" : 5126,
            "count" : 141,
            "type" : "VEC4"
        }
    ],
    "bufferViews" : [
        {
            "buffer" : 0,
            "byteLength" : 1632,
            "byteOffset" : 0
        },
        {
            "buffer" : 0,
            "byteLength" : 1632,
            "byteOffset" : 1632
        },
        {
            "buffer" : 0,
            "byteLength" : 1088,
            "byteOffset" : 3264
        },
        {
            "buffer" : 0,
            "byteLength" : 1088,
            "byteOffset" : 4352
        },
        {
            "buffer" : 0,
            "byteLength" : 420,
            "byteOffset" : 5440
        },
        {
            "buffer" : 0,
            "byteLength" : 240,
            "byteOffset" : 5860
        },
        {
            "buffer" : 0,
            "byteLength" : 240,
            "byteOffset" : 6100
        },
        {
            "buffer" : 0,
            "byteLength" : 160,
            "byteOffset" : 6340
        },
        {
            "buffer" : 0,
            "byteLength" : 160,
            "byteOffset" : 6500
        },
        {
            "buffer" : 0,
            "byteLength" : 60,
            "byteOffset" : 6660
        },
        {
            "buffer" : 0,
            "byteLength" : 144,
            "byteOffset" : 6720
        },
        {
            "buffer" : 0,
            "byteLength" : 144,
            "byteOffset" : 6864
        },
        {
            "buffer" : 0,
            "byteLength" : 96,
            "byteOffset" : 7008
        },
        {
            "buffer" : 0,
            "byteLength" : 96,
            "byteOffset" : 7104
        },
        {
            "buffer" : 0,
            "byteLength" : 60,
            "byteOffset" : 7200
        },
        {
            "buffer" : 0,
            "byteLength" : 2076,
            "byteOffset" : 7260
        },
        {
            "buffer" : 0,
            "byteLength" : 2076,
            "byteOffset" : 9336
        },
        {
            "buffer" : 0,
            "byteLength" : 1384,
            "byteOffset" : 11412
        },
        {
            "buffer" : 0,
            "byteLength" : 1384,
            "byteOffset" : 12796
        },
        {
            "buffer" : 0,
            "byteLength" : 558,
            "byteOffset" : 14180
        },
        {
            "buffer" : 0,
            "byteLength" : 480,
            "byteOffset" : 14740
        },
        {
            "buffer" : 0,
            "byteLength" : 480,
            "byteOffset" : 15220
        },
        {
            "buffer" : 0,
            "byteLength" : 320,
            "byteOffset" : 15700
        },
        {
            "buffer" : 0,
            "byteLength" : 320,
            "byteOffset" : 16020
        },
        {
            "buffer" : 0,
            "byteLength" : 120,
            "byteOffset" : 16340
        },
        {
            "buffer" : 0,
            "byteLength" : 48,
            "byteOffset" : 16460
        },
        {
            "buffer" : 0,
            "byteLength" : 48,
            "byteOffset" : 16508
        },
        {
            "buffer" : 0,
            "byteLength" : 32,
            "byteOffset" : 16556
        },
        {
            "buffer" : 0,
            "byteLength" : 32,
            "byteOffset" : 16588
        },
        {
            "buffer" : 0,
            "byteLength" : 12,
            "byteOffset" : 16620
        },
        {
            "buffer" : 0,
            "byteLength" : 384,
            "byteOffset" : 16632
        },
        {
            "buffer" : 0,
            "byteLength" : 384,
            "byteOffset" : 17016
        },
        {
            "buffer" : 0,
            "byteLength" : 256,
            "byteOffset" : 17400
        },
        {
            "buffer" : 0,
            "byteLength" : 256,
            "byteOffset" : 17656
        },
        {
            "buffer" : 0,
            "byteLength" : 180,
            "byteOffset" : 17912
        },
        {
            "buffer" : 0,
            "byteLength" : 560,
            "byteOffset" : 18092
        },
        {
            "buffer" : 0,
            "byteLength" : 1680,
            "byteOffset" : 18652
        },
        {
            "buffer" : 0,
            "byteLength" : 564,
            "byteOffset" : 20332
        },
        {
            "buffer" : 0,
            "byteLength" : 2256,
            "byteOffset" : 20896
        }
    ],
    "samplers" : [
        {
            "magFilter" : 9729,
            "minFilter" : 9987
        }
    ],
    "buffers" : [
        {
            "byteLength" : 23152,
            "uri" : "iphone.bin"
        }
    ]
}
